<?xml version="1.0" encoding="UTF-8" standalone="no"?><!DOCTYPE svg PUBLIC "-//W3C//DTD SVG 1.1//EN" "http://www.w3.org/Graphics/SVG/1.1/DTD/svg11.dtd"><svg width="100%" height="100%" viewBox="0 0 288 72" version="1.1" xmlns="http://www.w3.org/2000/svg" xmlns:xlink="http://www.w3.org/1999/xlink" xml:space="preserve" xmlns:serif="http://www.serif.com/" style="fill-rule:evenodd;clip-rule:evenodd;stroke-linejoin:round;stroke-miterlimit:2;"><rect id="web_banner_redaxo_addon" x="0" y="0" width="288" height="72" style="fill:none;"/><clipPath id="_clip1"><rect x="0" y="0" width="288" height="72"/></clipPath><g clip-path="url(#_clip1)"><rect x="-0" y="-0" width="288" height="72" style="fill:#008dd0;"/><g id="Logo"><path d="M288,72l-69.145,-39.921l18.521,-32.079l50.624,0l-0,72Z" style="fill:#fff;"/><g id="Logo1" serif:id="Logo"><g><path d="M243.053,29.511l-1.041,0.036c-0.781,0.023 -1.363,0.164 -1.745,0.423c-0.382,0.259 -0.573,0.652 -0.573,1.181c-0,0.758 0.435,1.137 1.304,1.137c0.624,0 1.121,-0.179 1.495,-0.537c0.373,-0.359 0.56,-0.835 0.56,-1.429l-0,-0.811Zm0.793,4.567l-0.52,-1.34l-0.071,-0c-0.452,0.57 -0.918,0.965 -1.397,1.186c-0.479,0.22 -1.103,0.33 -1.873,0.33c-0.947,0 -1.692,-0.27 -2.235,-0.811c-0.544,-0.54 -0.816,-1.31 -0.816,-2.309c0,-1.047 0.366,-1.818 1.098,-2.315c0.732,-0.496 1.835,-0.771 3.31,-0.824l1.711,-0.053l-0,-0.432c-0,-0.999 -0.512,-1.499 -1.534,-1.499c-0.788,0 -1.714,0.239 -2.778,0.715l-0.89,-1.817c1.135,-0.593 2.392,-0.89 3.773,-0.89c1.323,0 2.336,0.288 3.042,0.864c0.705,0.576 1.058,1.452 1.058,2.627l-0,6.568l-1.878,0Z" style="fill:#1e1e1d;fill-rule:nonzero;"/><rect x="247.479" y="20.36" width="2.689" height="13.718" style="fill:#1e1e1d;"/><path d="M256.152,25.95c-0.57,-0 -1.017,0.181 -1.34,0.542c-0.323,0.361 -0.508,0.874 -0.556,1.538l3.773,0c-0.011,-0.664 -0.185,-1.177 -0.52,-1.538c-0.335,-0.361 -0.787,-0.542 -1.357,-0.542m0.379,8.305c-1.587,-0 -2.827,-0.438 -3.721,-1.314c-0.893,-0.876 -1.339,-2.116 -1.339,-3.721c-0,-1.651 0.412,-2.928 1.238,-3.83c0.826,-0.902 1.968,-1.353 3.425,-1.353c1.393,-0 2.477,0.396 3.253,1.19c0.776,0.793 1.164,1.89 1.164,3.288l0,1.305l-6.356,0c0.029,0.764 0.255,1.361 0.679,1.79c0.423,0.429 1.016,0.643 1.78,0.643c0.594,0 1.155,-0.061 1.684,-0.185c0.529,-0.123 1.081,-0.32 1.658,-0.591l-0,2.081c-0.471,0.235 -0.973,0.41 -1.508,0.525c-0.535,0.114 -1.187,0.172 -1.957,0.172" style="fill:#1e1e1d;fill-rule:nonzero;"/><path d="M263.916,29.044l-3.173,-4.822l3.05,-0l1.913,3.138l1.931,-3.138l3.05,-0l-3.209,4.822l3.359,5.034l-3.059,0l-2.072,-3.376l-2.08,3.376l-3.051,0l3.341,-5.034Z" style="fill:#1e1e1d;fill-rule:nonzero;"/><path d="M276.168,24.223l-0,-3.862l-2.17,-0l0,3.862l-2.379,0l-1.444,2.169l3.823,0l0,3.813l2.17,0l-0,-3.813l2.392,0l1.44,-2.165l0,-0.004l-3.832,0Z" style="fill:#008dd4;fill-rule:nonzero;"/></g></g></g><path d="M21.747,21.496l-1.573,-4.301c-0.078,-0.191 -0.158,-0.417 -0.242,-0.679c-0.083,-0.263 -0.167,-0.546 -0.25,-0.85c-0.078,0.304 -0.158,0.589 -0.242,0.854c-0.083,0.265 -0.164,0.496 -0.241,0.693l-1.565,4.283l4.113,0Zm4.248,4.882l-1.86,0c-0.209,0 -0.379,-0.052 -0.51,-0.156c-0.131,-0.104 -0.229,-0.234 -0.295,-0.389l-0.966,-2.638l-5.356,0l-0.965,2.638c-0.048,0.137 -0.141,0.262 -0.278,0.375c-0.137,0.114 -0.307,0.17 -0.509,0.17l-1.878,0l5.088,-12.929l2.45,-0l5.079,12.929Z" style="fill:#fff;fill-rule:nonzero;"/><path d="M32.558,19.547c-0.25,-0.304 -0.523,-0.519 -0.818,-0.644c-0.295,-0.125 -0.613,-0.188 -0.952,-0.188c-0.334,0 -0.635,0.063 -0.904,0.188c-0.268,0.125 -0.497,0.314 -0.688,0.568c-0.191,0.253 -0.337,0.575 -0.438,0.966c-0.102,0.39 -0.152,0.851 -0.152,1.381c-0,0.537 0.043,0.991 0.129,1.364c0.087,0.372 0.211,0.676 0.372,0.912c0.16,0.235 0.357,0.405 0.59,0.509c0.232,0.105 0.491,0.157 0.778,0.157c0.459,-0 0.849,-0.095 1.171,-0.286c0.322,-0.191 0.626,-0.462 0.912,-0.814l0,-4.113Zm2.209,-6.456l-0,13.287l-1.351,0c-0.292,0 -0.476,-0.134 -0.554,-0.402l-0.188,-0.885c-0.369,0.423 -0.794,0.766 -1.274,1.028c-0.48,0.262 -1.039,0.394 -1.676,0.394c-0.501,-0 -0.96,-0.105 -1.378,-0.313c-0.417,-0.209 -0.776,-0.512 -1.077,-0.908c-0.301,-0.396 -0.534,-0.887 -0.697,-1.471c-0.164,-0.584 -0.246,-1.252 -0.246,-2.003c-0,-0.68 0.092,-1.311 0.277,-1.896c0.185,-0.584 0.45,-1.091 0.796,-1.52c0.345,-0.429 0.76,-0.764 1.243,-1.006c0.482,-0.241 1.025,-0.362 1.627,-0.362c0.513,0 0.951,0.081 1.314,0.242c0.364,0.161 0.689,0.378 0.975,0.652l0,-4.837l2.209,-0Z" style="fill:#fff;fill-rule:nonzero;"/><path d="M42.707,19.547c-0.25,-0.304 -0.523,-0.519 -0.818,-0.644c-0.295,-0.125 -0.613,-0.188 -0.952,-0.188c-0.334,0 -0.635,0.063 -0.904,0.188c-0.268,0.125 -0.497,0.314 -0.688,0.568c-0.191,0.253 -0.337,0.575 -0.438,0.966c-0.102,0.39 -0.152,0.851 -0.152,1.381c-0,0.537 0.043,0.991 0.129,1.364c0.087,0.372 0.211,0.676 0.371,0.912c0.161,0.235 0.358,0.405 0.591,0.509c0.232,0.105 0.491,0.157 0.778,0.157c0.459,-0 0.849,-0.095 1.171,-0.286c0.322,-0.191 0.626,-0.462 0.912,-0.814l0,-4.113Zm2.209,-6.456l-0,13.287l-1.351,0c-0.292,0 -0.476,-0.134 -0.554,-0.402l-0.188,-0.885c-0.369,0.423 -0.794,0.766 -1.274,1.028c-0.48,0.262 -1.039,0.394 -1.677,0.394c-0.5,-0 -0.959,-0.105 -1.377,-0.313c-0.417,-0.209 -0.776,-0.512 -1.077,-0.908c-0.301,-0.396 -0.534,-0.887 -0.698,-1.471c-0.163,-0.584 -0.245,-1.252 -0.245,-2.003c-0,-0.68 0.092,-1.311 0.277,-1.896c0.185,-0.584 0.45,-1.091 0.796,-1.52c0.345,-0.429 0.76,-0.764 1.242,-1.006c0.483,-0.241 1.026,-0.362 1.628,-0.362c0.513,0 0.951,0.081 1.314,0.242c0.364,0.161 0.689,0.378 0.975,0.652l0,-4.837l2.209,-0Z" style="fill:#fff;fill-rule:nonzero;"/><path d="M51.157,17.061c0.68,0 1.298,0.11 1.855,0.331c0.558,0.22 1.035,0.533 1.431,0.939c0.397,0.405 0.702,0.9 0.917,1.484c0.214,0.584 0.322,1.237 0.322,1.958c-0,0.728 -0.108,1.383 -0.322,1.968c-0.215,0.584 -0.52,1.082 -0.917,1.493c-0.396,0.411 -0.873,0.727 -1.431,0.948c-0.557,0.22 -1.175,0.331 -1.855,0.331c-0.686,-0 -1.308,-0.111 -1.869,-0.331c-0.56,-0.221 -1.039,-0.537 -1.435,-0.948c-0.396,-0.411 -0.703,-0.909 -0.921,-1.493c-0.218,-0.585 -0.326,-1.24 -0.326,-1.968c-0,-0.721 0.108,-1.374 0.326,-1.958c0.218,-0.584 0.525,-1.079 0.921,-1.484c0.396,-0.406 0.875,-0.719 1.435,-0.939c0.561,-0.221 1.183,-0.331 1.869,-0.331Zm0,7.753c0.763,-0 1.328,-0.257 1.694,-0.769c0.367,-0.513 0.55,-1.264 0.55,-2.254c0,-0.989 -0.183,-1.743 -0.55,-2.262c-0.366,-0.519 -0.931,-0.778 -1.694,-0.778c-0.775,0 -1.349,0.261 -1.721,0.782c-0.373,0.522 -0.559,1.275 -0.559,2.258c-0,0.984 0.186,1.733 0.559,2.249c0.372,0.516 0.946,0.774 1.721,0.774Z" style="fill:#fff;fill-rule:nonzero;"/><path d="M59.437,18.331c0.185,-0.185 0.38,-0.356 0.586,-0.514c0.205,-0.158 0.423,-0.292 0.653,-0.403c0.229,-0.11 0.475,-0.196 0.737,-0.259c0.263,-0.063 0.549,-0.094 0.859,-0.094c0.5,0 0.945,0.085 1.332,0.255c0.387,0.17 0.711,0.408 0.97,0.715c0.259,0.307 0.456,0.674 0.59,1.1c0.134,0.426 0.202,0.896 0.202,1.408l-0,5.839l-2.209,0l-0,-5.839c-0,-0.56 -0.128,-0.994 -0.385,-1.301c-0.256,-0.307 -0.646,-0.46 -1.171,-0.46c-0.381,-0 -0.739,0.086 -1.073,0.259c-0.334,0.173 -0.65,0.408 -0.948,0.707l0,6.634l-2.208,0l-0,-9.174l1.35,0c0.286,0 0.474,0.134 0.563,0.402l0.152,0.725Z" style="fill:#fff;fill-rule:nonzero;"/><path d="M72.447,26.378l0,-7.511l-0.795,-0.125c-0.173,-0.036 -0.312,-0.097 -0.416,-0.183c-0.104,-0.087 -0.157,-0.21 -0.157,-0.371l0,-0.903l1.368,-0l0,-0.68c0,-0.525 0.079,-0.996 0.237,-1.413c0.158,-0.417 0.385,-0.772 0.68,-1.064c0.295,-0.292 0.654,-0.516 1.077,-0.671c0.424,-0.155 0.901,-0.232 1.431,-0.232c0.423,-0 0.817,0.057 1.18,0.17l-0.044,1.109c-0.006,0.083 -0.03,0.15 -0.072,0.201c-0.041,0.051 -0.097,0.089 -0.165,0.116c-0.069,0.027 -0.148,0.045 -0.237,0.054c-0.09,0.009 -0.185,0.013 -0.286,0.013c-0.263,0 -0.497,0.028 -0.702,0.085c-0.206,0.057 -0.38,0.155 -0.523,0.295c-0.143,0.14 -0.252,0.325 -0.327,0.555c-0.074,0.229 -0.111,0.514 -0.111,0.854l-0,0.608l2.387,-0l-0,1.573l-2.316,0l0,7.52l-2.209,0Z" style="fill:#fff;fill-rule:nonzero;"/><path d="M82.033,17.061c0.68,0 1.298,0.11 1.855,0.331c0.558,0.22 1.035,0.533 1.431,0.939c0.397,0.405 0.702,0.9 0.917,1.484c0.214,0.584 0.322,1.237 0.322,1.958c-0,0.728 -0.108,1.383 -0.322,1.968c-0.215,0.584 -0.52,1.082 -0.917,1.493c-0.396,0.411 -0.873,0.727 -1.431,0.948c-0.557,0.22 -1.175,0.331 -1.855,0.331c-0.685,-0 -1.308,-0.111 -1.869,-0.331c-0.56,-0.221 -1.039,-0.537 -1.435,-0.948c-0.396,-0.411 -0.703,-0.909 -0.921,-1.493c-0.218,-0.585 -0.326,-1.24 -0.326,-1.968c-0,-0.721 0.108,-1.374 0.326,-1.958c0.218,-0.584 0.525,-1.079 0.921,-1.484c0.396,-0.406 0.875,-0.719 1.435,-0.939c0.561,-0.221 1.184,-0.331 1.869,-0.331Zm0,7.753c0.763,-0 1.328,-0.257 1.695,-0.769c0.366,-0.513 0.549,-1.264 0.549,-2.254c0,-0.989 -0.183,-1.743 -0.549,-2.262c-0.367,-0.519 -0.932,-0.778 -1.695,-0.778c-0.775,0 -1.349,0.261 -1.721,0.782c-0.373,0.522 -0.559,1.275 -0.559,2.258c-0,0.984 0.186,1.733 0.559,2.249c0.372,0.516 0.946,0.774 1.721,0.774Zm-0.572,-9.988c-0,0.166 -0.033,0.323 -0.099,0.469c-0.065,0.146 -0.156,0.273 -0.272,0.38c-0.117,0.107 -0.251,0.192 -0.403,0.255c-0.152,0.062 -0.314,0.094 -0.487,0.094c-0.161,-0 -0.314,-0.032 -0.461,-0.094c-0.146,-0.063 -0.274,-0.148 -0.384,-0.255c-0.11,-0.107 -0.198,-0.234 -0.264,-0.38c-0.065,-0.146 -0.098,-0.303 -0.098,-0.469c-0,-0.173 0.033,-0.336 0.098,-0.488c0.066,-0.152 0.154,-0.284 0.264,-0.398c0.11,-0.113 0.238,-0.202 0.384,-0.268c0.147,-0.065 0.3,-0.098 0.461,-0.098c0.173,-0 0.335,0.033 0.487,0.098c0.152,0.066 0.286,0.155 0.403,0.268c0.116,0.114 0.207,0.246 0.272,0.398c0.066,0.152 0.099,0.315 0.099,0.488Zm3.612,-0c0,0.166 -0.033,0.323 -0.098,0.469c-0.066,0.146 -0.154,0.273 -0.264,0.38c-0.11,0.107 -0.241,0.192 -0.393,0.255c-0.152,0.062 -0.315,0.094 -0.488,0.094c-0.167,-0 -0.325,-0.032 -0.474,-0.094c-0.149,-0.063 -0.278,-0.148 -0.389,-0.255c-0.11,-0.107 -0.198,-0.234 -0.263,-0.38c-0.066,-0.146 -0.099,-0.303 -0.099,-0.469c0,-0.173 0.033,-0.336 0.099,-0.488c0.065,-0.152 0.153,-0.284 0.263,-0.398c0.111,-0.113 0.24,-0.202 0.389,-0.268c0.149,-0.065 0.307,-0.098 0.474,-0.098c0.173,-0 0.336,0.033 0.488,0.098c0.152,0.066 0.283,0.155 0.393,0.268c0.11,0.114 0.198,0.246 0.264,0.398c0.065,0.152 0.098,0.315 0.098,0.488Z" style="fill:#fff;fill-rule:nonzero;"/><path d="M90.331,18.796c0.286,-0.549 0.626,-0.979 1.019,-1.292c0.394,-0.313 0.859,-0.47 1.395,-0.47c0.424,0 0.763,0.093 1.02,0.277l-0.143,1.655c-0.03,0.107 -0.073,0.183 -0.13,0.228c-0.057,0.044 -0.133,0.067 -0.228,0.067c-0.089,-0 -0.222,-0.015 -0.398,-0.045c-0.176,-0.03 -0.347,-0.045 -0.514,-0.045c-0.245,0 -0.462,0.036 -0.653,0.108c-0.191,0.071 -0.362,0.174 -0.514,0.308c-0.152,0.134 -0.286,0.297 -0.402,0.487c-0.117,0.191 -0.225,0.409 -0.327,0.653l0,5.651l-2.208,0l-0,-9.174l1.296,0c0.227,0 0.385,0.04 0.474,0.121c0.09,0.08 0.149,0.225 0.179,0.433l0.134,1.038Z" style="fill:#fff;fill-rule:nonzero;"/><path d="M100.435,19.547c-0.25,-0.304 -0.523,-0.519 -0.818,-0.644c-0.295,-0.125 -0.612,-0.188 -0.952,-0.188c-0.334,0 -0.635,0.063 -0.903,0.188c-0.269,0.125 -0.498,0.314 -0.689,0.568c-0.191,0.253 -0.337,0.575 -0.438,0.966c-0.101,0.39 -0.152,0.851 -0.152,1.381c0,0.537 0.043,0.991 0.13,1.364c0.086,0.372 0.21,0.676 0.371,0.912c0.161,0.235 0.357,0.405 0.59,0.509c0.232,0.105 0.492,0.157 0.778,0.157c0.459,-0 0.849,-0.095 1.171,-0.286c0.322,-0.191 0.626,-0.462 0.912,-0.814l0,-4.113Zm2.209,-6.456l-0,13.287l-1.35,0c-0.292,0 -0.477,-0.134 -0.555,-0.402l-0.187,-0.885c-0.37,0.423 -0.795,0.766 -1.275,1.028c-0.48,0.262 -1.038,0.394 -1.676,0.394c-0.501,-0 -0.96,-0.105 -1.377,-0.313c-0.418,-0.209 -0.777,-0.512 -1.078,-0.908c-0.301,-0.396 -0.533,-0.887 -0.697,-1.471c-0.164,-0.584 -0.246,-1.252 -0.246,-2.003c-0,-0.68 0.092,-1.311 0.277,-1.896c0.185,-0.584 0.45,-1.091 0.796,-1.52c0.346,-0.429 0.76,-0.764 1.243,-1.006c0.483,-0.241 1.025,-0.362 1.627,-0.362c0.513,0 0.951,0.081 1.315,0.242c0.363,0.161 0.688,0.378 0.974,0.652l0,-4.837l2.209,-0Z" style="fill:#fff;fill-rule:nonzero;"/><path d="M110.736,20.736c0,-0.286 -0.04,-0.556 -0.12,-0.809c-0.081,-0.253 -0.202,-0.476 -0.363,-0.666c-0.161,-0.191 -0.365,-0.342 -0.612,-0.452c-0.248,-0.11 -0.535,-0.165 -0.863,-0.165c-0.638,-0 -1.14,0.182 -1.507,0.545c-0.366,0.364 -0.6,0.879 -0.702,1.547l4.167,0Zm-4.211,1.332c0.035,0.471 0.119,0.878 0.25,1.221c0.131,0.343 0.304,0.626 0.519,0.849c0.214,0.224 0.469,0.391 0.764,0.501c0.295,0.11 0.622,0.166 0.979,0.166c0.358,-0 0.666,-0.042 0.926,-0.126c0.259,-0.083 0.486,-0.175 0.679,-0.277c0.194,-0.101 0.364,-0.193 0.51,-0.277c0.146,-0.083 0.288,-0.125 0.425,-0.125c0.185,-0 0.322,0.068 0.411,0.206l0.635,0.804c-0.244,0.286 -0.519,0.526 -0.823,0.72c-0.304,0.194 -0.621,0.349 -0.952,0.465c-0.331,0.116 -0.668,0.198 -1.01,0.246c-0.343,0.048 -0.676,0.072 -0.997,0.072c-0.638,-0 -1.231,-0.106 -1.78,-0.318c-0.548,-0.212 -1.025,-0.525 -1.431,-0.939c-0.405,-0.414 -0.724,-0.927 -0.956,-1.538c-0.233,-0.611 -0.349,-1.319 -0.349,-2.123c-0,-0.626 0.101,-1.215 0.304,-1.766c0.203,-0.552 0.493,-1.032 0.872,-1.44c0.378,-0.408 0.84,-0.732 1.386,-0.97c0.545,-0.239 1.161,-0.358 1.846,-0.358c0.579,0 1.112,0.092 1.601,0.277c0.489,0.185 0.909,0.455 1.261,0.809c0.351,0.355 0.627,0.79 0.827,1.306c0.199,0.516 0.299,1.104 0.299,1.766c0,0.334 -0.035,0.559 -0.107,0.675c-0.072,0.116 -0.209,0.174 -0.411,0.174l-5.678,0Z" style="fill:#fff;fill-rule:nonzero;"/><path d="M116.459,18.796c0.286,-0.549 0.626,-0.979 1.019,-1.292c0.394,-0.313 0.859,-0.47 1.395,-0.47c0.424,0 0.763,0.093 1.02,0.277l-0.143,1.655c-0.03,0.107 -0.073,0.183 -0.13,0.228c-0.057,0.044 -0.133,0.067 -0.228,0.067c-0.09,-0 -0.222,-0.015 -0.398,-0.045c-0.176,-0.03 -0.347,-0.045 -0.514,-0.045c-0.245,0 -0.462,0.036 -0.653,0.108c-0.191,0.071 -0.362,0.174 -0.514,0.308c-0.152,0.134 -0.286,0.297 -0.402,0.487c-0.117,0.191 -0.225,0.409 -0.327,0.653l0,5.651l-2.208,0l-0,-9.174l1.296,0c0.227,0 0.385,0.04 0.474,0.121c0.089,0.08 0.149,0.225 0.179,0.433l0.134,1.038Z" style="fill:#fff;fill-rule:nonzero;"/><path d="M123.112,18.331c0.185,-0.185 0.38,-0.356 0.585,-0.514c0.206,-0.158 0.424,-0.292 0.653,-0.403c0.23,-0.11 0.476,-0.196 0.738,-0.259c0.262,-0.063 0.548,-0.094 0.858,-0.094c0.501,0 0.945,0.085 1.333,0.255c0.387,0.17 0.71,0.408 0.97,0.715c0.259,0.307 0.456,0.674 0.59,1.1c0.134,0.426 0.201,0.896 0.201,1.408l0,5.839l-2.209,0l0,-5.839c0,-0.56 -0.128,-0.994 -0.384,-1.301c-0.256,-0.307 -0.647,-0.46 -1.171,-0.46c-0.382,-0 -0.74,0.086 -1.073,0.259c-0.334,0.173 -0.65,0.408 -0.948,0.707l-0,6.634l-2.209,0l0,-9.174l1.35,0c0.287,0 0.474,0.134 0.564,0.402l0.152,0.725Z" style="fill:#fff;fill-rule:nonzero;"/><path d="M130.247,14.62c0.203,-0.179 0.425,-0.349 0.666,-0.51c0.242,-0.161 0.503,-0.301 0.783,-0.42c0.28,-0.119 0.584,-0.213 0.912,-0.282c0.328,-0.068 0.682,-0.103 1.064,-0.103c0.519,0 0.991,0.072 1.417,0.215c0.426,0.143 0.792,0.347 1.096,0.613c0.304,0.265 0.539,0.585 0.706,0.961c0.167,0.375 0.25,0.796 0.25,1.261c0,0.453 -0.065,0.845 -0.196,1.175c-0.131,0.331 -0.295,0.619 -0.492,0.863c-0.197,0.245 -0.413,0.456 -0.648,0.635c-0.236,0.179 -0.458,0.347 -0.667,0.505c-0.208,0.158 -0.389,0.313 -0.541,0.465c-0.152,0.152 -0.242,0.324 -0.272,0.515l-0.206,1.305l-1.511,0l-0.152,-1.457c-0.036,-0.281 0.004,-0.527 0.121,-0.738c0.116,-0.212 0.271,-0.406 0.465,-0.581c0.193,-0.176 0.409,-0.346 0.648,-0.51c0.238,-0.164 0.462,-0.343 0.67,-0.537c0.209,-0.193 0.384,-0.411 0.524,-0.652c0.14,-0.242 0.21,-0.529 0.21,-0.863c-0,-0.215 -0.041,-0.407 -0.121,-0.577c-0.08,-0.17 -0.192,-0.316 -0.335,-0.438c-0.143,-0.122 -0.315,-0.216 -0.514,-0.282c-0.2,-0.065 -0.416,-0.098 -0.649,-0.098c-0.34,-0 -0.627,0.037 -0.863,0.112c-0.235,0.074 -0.435,0.158 -0.599,0.25c-0.164,0.092 -0.302,0.176 -0.416,0.25c-0.113,0.075 -0.214,0.112 -0.304,0.112c-0.214,0 -0.369,-0.089 -0.465,-0.268l-0.581,-0.921Zm1.69,10.542c0,-0.185 0.035,-0.36 0.103,-0.527c0.069,-0.167 0.163,-0.31 0.282,-0.429c0.119,-0.12 0.262,-0.215 0.429,-0.287c0.167,-0.071 0.346,-0.107 0.536,-0.107c0.191,0 0.369,0.036 0.533,0.107c0.163,0.072 0.307,0.167 0.429,0.287c0.122,0.119 0.219,0.262 0.29,0.429c0.072,0.167 0.108,0.342 0.108,0.527c-0,0.191 -0.036,0.368 -0.108,0.532c-0.071,0.164 -0.168,0.306 -0.29,0.425c-0.122,0.119 -0.266,0.213 -0.429,0.282c-0.164,0.068 -0.342,0.103 -0.533,0.103c-0.19,-0 -0.369,-0.035 -0.536,-0.103c-0.167,-0.069 -0.31,-0.163 -0.429,-0.282c-0.119,-0.119 -0.213,-0.261 -0.282,-0.425c-0.068,-0.164 -0.103,-0.341 -0.103,-0.532Z" style="fill:#fff;fill-rule:nonzero;"/><path d="M17.33,33.703l0,3.586l4.525,-0l-0,1.851l-4.525,-0l0,3.657l5.741,0l-0,1.923l-8.155,-0l-0,-12.93l8.155,-0l-0,1.913l-5.741,0Z" style="fill:#fff;fill-rule:nonzero;"/><path d="M26.719,36.672c0.185,-0.185 0.38,-0.356 0.586,-0.514c0.205,-0.158 0.423,-0.292 0.653,-0.403c0.229,-0.11 0.475,-0.196 0.737,-0.259c0.262,-0.062 0.549,-0.094 0.859,-0.094c0.5,0 0.944,0.085 1.332,0.255c0.387,0.17 0.711,0.408 0.97,0.715c0.259,0.307 0.456,0.674 0.59,1.1c0.134,0.426 0.201,0.896 0.201,1.409l0,5.839l-2.208,-0l-0,-5.839c-0,-0.561 -0.128,-0.994 -0.385,-1.301c-0.256,-0.307 -0.646,-0.461 -1.171,-0.461c-0.382,0 -0.739,0.086 -1.073,0.259c-0.334,0.173 -0.65,0.409 -0.948,0.707l0,6.635l-2.208,-0l-0,-9.175l1.35,0c0.286,0 0.474,0.134 0.563,0.403l0.152,0.724Z" style="fill:#fff;fill-rule:nonzero;"/><path d="M37.673,44.863c-0.799,-0 -1.412,-0.225 -1.838,-0.675c-0.426,-0.451 -0.639,-1.072 -0.639,-1.865l-0,-5.123l-0.939,-0c-0.119,-0 -0.221,-0.039 -0.304,-0.117c-0.083,-0.077 -0.125,-0.193 -0.125,-0.348l-0,-0.877l1.475,-0.241l0.465,-2.504c0.03,-0.119 0.087,-0.211 0.17,-0.277c0.084,-0.066 0.191,-0.098 0.322,-0.098l1.145,-0l-0,2.888l2.45,-0l-0,1.574l-2.45,-0l-0,4.971c-0,0.286 0.07,0.51 0.21,0.671c0.14,0.161 0.332,0.241 0.576,0.241c0.138,0 0.252,-0.016 0.345,-0.049c0.092,-0.033 0.173,-0.067 0.241,-0.103c0.069,-0.036 0.13,-0.07 0.183,-0.103c0.054,-0.032 0.108,-0.049 0.161,-0.049c0.066,0 0.12,0.017 0.161,0.049c0.042,0.033 0.087,0.082 0.134,0.148l0.662,1.073c-0.322,0.268 -0.691,0.471 -1.109,0.608c-0.417,0.137 -0.849,0.206 -1.296,0.206Z" style="fill:#fff;fill-rule:nonzero;"/><path d="M54.367,35.545l-2.915,9.175l-1.77,-0c-0.203,-0 -0.343,-0.132 -0.421,-0.394l-1.645,-5.302c-0.054,-0.179 -0.103,-0.357 -0.147,-0.532c-0.045,-0.176 -0.082,-0.354 -0.112,-0.532c-0.036,0.178 -0.076,0.359 -0.121,0.541c-0.045,0.181 -0.094,0.362 -0.148,0.541l-1.672,5.284c-0.071,0.262 -0.229,0.394 -0.474,0.394l-1.698,-0l-2.907,-9.175l1.762,0c0.161,0 0.298,0.039 0.411,0.117c0.114,0.077 0.188,0.175 0.224,0.295l1.314,4.9c0.066,0.268 0.124,0.53 0.175,0.787c0.05,0.256 0.094,0.512 0.129,0.769c0.066,-0.257 0.136,-0.513 0.21,-0.769c0.075,-0.257 0.154,-0.519 0.237,-0.787l1.52,-4.918c0.036,-0.119 0.106,-0.218 0.211,-0.295c0.104,-0.078 0.231,-0.117 0.38,-0.117l0.974,0c0.155,0 0.288,0.039 0.398,0.117c0.111,0.077 0.184,0.176 0.219,0.295l1.476,4.918c0.077,0.268 0.15,0.532 0.219,0.791c0.068,0.259 0.135,0.517 0.201,0.774c0.077,-0.507 0.188,-1.029 0.331,-1.565l1.35,-4.9c0.042,-0.12 0.116,-0.218 0.224,-0.295c0.107,-0.078 0.235,-0.117 0.384,-0.117l1.681,0Z" style="fill:#fff;fill-rule:nonzero;"/><path d="M57.908,35.545l0,9.175l-2.217,-0l-0,-9.175l2.217,0Zm0.304,-2.673c0,0.19 -0.039,0.369 -0.116,0.536c-0.078,0.167 -0.18,0.313 -0.309,0.438c-0.128,0.126 -0.278,0.225 -0.451,0.3c-0.173,0.074 -0.358,0.112 -0.555,0.112c-0.19,-0 -0.371,-0.038 -0.541,-0.112c-0.169,-0.075 -0.317,-0.174 -0.442,-0.3c-0.125,-0.125 -0.225,-0.271 -0.3,-0.438c-0.074,-0.167 -0.112,-0.346 -0.112,-0.536c0,-0.197 0.038,-0.382 0.112,-0.555c0.075,-0.173 0.175,-0.322 0.3,-0.447c0.125,-0.125 0.273,-0.225 0.442,-0.299c0.17,-0.075 0.351,-0.112 0.541,-0.112c0.197,-0 0.382,0.037 0.555,0.112c0.173,0.074 0.323,0.174 0.451,0.299c0.129,0.125 0.231,0.274 0.309,0.447c0.077,0.173 0.116,0.358 0.116,0.555Z" style="fill:#fff;fill-rule:nonzero;"/><path d="M66.734,37.486c-0.066,0.083 -0.13,0.149 -0.193,0.196c-0.062,0.048 -0.153,0.072 -0.272,0.072c-0.114,-0 -0.224,-0.034 -0.331,-0.103c-0.107,-0.068 -0.236,-0.146 -0.385,-0.232c-0.149,-0.087 -0.326,-0.164 -0.532,-0.233c-0.205,-0.068 -0.46,-0.103 -0.764,-0.103c-0.388,0 -0.728,0.07 -1.02,0.21c-0.292,0.141 -0.535,0.342 -0.728,0.604c-0.194,0.262 -0.339,0.58 -0.434,0.952c-0.095,0.373 -0.143,0.795 -0.143,1.266c-0,0.488 0.052,0.924 0.156,1.305c0.105,0.382 0.255,0.702 0.452,0.961c0.197,0.26 0.435,0.456 0.715,0.59c0.28,0.135 0.596,0.202 0.948,0.202c0.352,-0 0.636,-0.044 0.854,-0.13c0.218,-0.086 0.401,-0.182 0.55,-0.286c0.149,-0.104 0.279,-0.2 0.389,-0.286c0.11,-0.087 0.234,-0.13 0.371,-0.13c0.179,0 0.313,0.069 0.402,0.206l0.635,0.804c-0.244,0.287 -0.509,0.527 -0.796,0.72c-0.286,0.194 -0.582,0.349 -0.889,0.465c-0.307,0.117 -0.623,0.198 -0.948,0.246c-0.325,0.048 -0.648,0.072 -0.97,0.072c-0.567,-0 -1.1,-0.106 -1.601,-0.318c-0.501,-0.211 -0.939,-0.52 -1.314,-0.925c-0.376,-0.406 -0.672,-0.902 -0.89,-1.489c-0.218,-0.587 -0.326,-1.256 -0.326,-2.007c-0,-0.674 0.096,-1.298 0.29,-1.874c0.194,-0.575 0.479,-1.073 0.854,-1.493c0.376,-0.42 0.841,-0.75 1.395,-0.988c0.554,-0.239 1.192,-0.358 1.914,-0.358c0.685,0 1.286,0.111 1.801,0.331c0.516,0.221 0.98,0.537 1.391,0.948l-0.581,0.805Z" style="fill:#fff;fill-rule:nonzero;"/><path d="M70.99,31.432l-0,7.61l0.411,-0c0.149,-0 0.267,-0.02 0.353,-0.059c0.087,-0.038 0.175,-0.117 0.264,-0.237l2.28,-2.816c0.096,-0.125 0.202,-0.221 0.318,-0.286c0.116,-0.066 0.267,-0.099 0.451,-0.099l2.021,0l-2.852,3.407c-0.203,0.268 -0.423,0.474 -0.662,0.617c0.125,0.09 0.237,0.194 0.335,0.313c0.099,0.119 0.193,0.247 0.282,0.385l3.058,4.453l-1.994,-0c-0.173,-0 -0.322,-0.029 -0.447,-0.085c-0.125,-0.057 -0.229,-0.16 -0.313,-0.309l-2.343,-3.478c-0.083,-0.137 -0.17,-0.227 -0.259,-0.268c-0.089,-0.042 -0.223,-0.063 -0.402,-0.063l-0.501,-0l-0,4.203l-2.209,-0l0,-13.288l2.209,0Z" style="fill:#fff;fill-rule:nonzero;"/><rect x="78.367" y="31.432" width="2.209" height="13.288" style="fill:#fff;fill-rule:nonzero;"/><path d="M88.695,39.077c-0,-0.286 -0.041,-0.556 -0.121,-0.809c-0.08,-0.253 -0.201,-0.475 -0.362,-0.666c-0.161,-0.191 -0.365,-0.341 -0.613,-0.452c-0.247,-0.11 -0.535,-0.165 -0.863,-0.165c-0.637,-0 -1.14,0.182 -1.506,0.545c-0.367,0.364 -0.601,0.88 -0.702,1.547l4.167,0Zm-4.212,1.333c0.036,0.471 0.119,0.877 0.25,1.22c0.132,0.343 0.305,0.626 0.519,0.85c0.215,0.223 0.47,0.39 0.765,0.5c0.295,0.111 0.621,0.166 0.979,0.166c0.357,-0 0.666,-0.042 0.925,-0.125c0.26,-0.084 0.486,-0.176 0.68,-0.278c0.194,-0.101 0.363,-0.193 0.509,-0.277c0.147,-0.083 0.288,-0.125 0.425,-0.125c0.185,0 0.322,0.069 0.412,0.206l0.634,0.804c-0.244,0.287 -0.518,0.527 -0.822,0.72c-0.304,0.194 -0.622,0.349 -0.953,0.465c-0.33,0.117 -0.667,0.198 -1.01,0.246c-0.343,0.048 -0.675,0.072 -0.997,0.072c-0.638,-0 -1.231,-0.106 -1.779,-0.318c-0.549,-0.211 -1.026,-0.524 -1.431,-0.939c-0.405,-0.414 -0.724,-0.927 -0.957,-1.538c-0.232,-0.611 -0.349,-1.319 -0.349,-2.123c0,-0.626 0.102,-1.215 0.304,-1.766c0.203,-0.552 0.494,-1.032 0.872,-1.44c0.379,-0.408 0.841,-0.732 1.386,-0.97c0.546,-0.239 1.161,-0.358 1.847,-0.358c0.578,0 1.112,0.093 1.6,0.277c0.489,0.185 0.909,0.455 1.261,0.81c0.352,0.354 0.628,0.79 0.827,1.305c0.2,0.516 0.3,1.104 0.3,1.766c-0,0.334 -0.036,0.559 -0.108,0.675c-0.071,0.117 -0.208,0.175 -0.411,0.175l-5.678,-0Z" style="fill:#fff;fill-rule:nonzero;"/><path d="M94.417,37.137c0.287,-0.548 0.626,-0.979 1.02,-1.292c0.393,-0.313 0.858,-0.47 1.395,-0.47c0.423,0 0.763,0.093 1.019,0.278l-0.143,1.654c-0.03,0.107 -0.073,0.183 -0.13,0.228c-0.056,0.045 -0.132,0.067 -0.228,0.067c-0.089,-0 -0.222,-0.015 -0.398,-0.045c-0.175,-0.03 -0.347,-0.045 -0.514,-0.045c-0.244,0 -0.462,0.036 -0.652,0.108c-0.191,0.071 -0.363,0.174 -0.515,0.308c-0.152,0.134 -0.286,0.297 -0.402,0.488c-0.116,0.19 -0.225,0.408 -0.326,0.652l-0,5.652l-2.209,-0l0,-9.175l1.297,0c0.226,0 0.384,0.041 0.473,0.121c0.09,0.08 0.15,0.225 0.179,0.434l0.134,1.037Z" style="fill:#fff;fill-rule:nonzero;"/><path d="M105.183,42.341c0.251,0.304 0.523,0.519 0.819,0.644c0.295,0.125 0.606,0.188 0.934,0.188c0.34,-0 0.645,-0.061 0.917,-0.184c0.271,-0.122 0.502,-0.313 0.693,-0.572c0.19,-0.259 0.336,-0.59 0.438,-0.992c0.101,-0.403 0.152,-0.884 0.152,-1.445c-0,-1.007 -0.167,-1.736 -0.501,-2.186c-0.334,-0.45 -0.814,-0.675 -1.44,-0.675c-0.423,0 -0.793,0.097 -1.108,0.291c-0.316,0.193 -0.617,0.466 -0.904,0.818l0,4.113Zm0,-5.669c0.37,-0.388 0.78,-0.696 1.23,-0.926c0.45,-0.229 0.964,-0.344 1.542,-0.344c0.531,0 1.009,0.105 1.436,0.313c0.426,0.209 0.789,0.508 1.09,0.899c0.301,0.39 0.532,0.863 0.693,1.417c0.161,0.555 0.242,1.177 0.242,1.869c-0,0.745 -0.093,1.422 -0.277,2.03c-0.185,0.608 -0.449,1.128 -0.792,1.56c-0.342,0.432 -0.755,0.768 -1.238,1.006c-0.483,0.238 -1.02,0.358 -1.61,0.358c-0.286,-0 -0.545,-0.029 -0.778,-0.085c-0.232,-0.057 -0.447,-0.136 -0.643,-0.237c-0.197,-0.102 -0.377,-0.225 -0.541,-0.371c-0.164,-0.146 -0.321,-0.309 -0.47,-0.488l-0.098,0.617c-0.036,0.155 -0.097,0.266 -0.184,0.331c-0.086,0.066 -0.204,0.099 -0.353,0.099l-1.457,-0l-0,-13.288l2.208,0l0,5.24Z" style="fill:#fff;fill-rule:nonzero;"/><path d="M119.034,39.077c0,-0.286 -0.04,-0.556 -0.12,-0.809c-0.081,-0.253 -0.202,-0.475 -0.363,-0.666c-0.161,-0.191 -0.365,-0.341 -0.612,-0.452c-0.248,-0.11 -0.535,-0.165 -0.863,-0.165c-0.638,-0 -1.14,0.182 -1.507,0.545c-0.366,0.364 -0.6,0.88 -0.702,1.547l4.167,0Zm-4.211,1.333c0.035,0.471 0.119,0.877 0.25,1.22c0.131,0.343 0.304,0.626 0.519,0.85c0.214,0.223 0.469,0.39 0.764,0.5c0.295,0.111 0.622,0.166 0.979,0.166c0.358,-0 0.666,-0.042 0.926,-0.125c0.259,-0.084 0.486,-0.176 0.679,-0.278c0.194,-0.101 0.364,-0.193 0.51,-0.277c0.146,-0.083 0.288,-0.125 0.425,-0.125c0.185,0 0.322,0.069 0.411,0.206l0.635,0.804c-0.244,0.287 -0.519,0.527 -0.823,0.72c-0.304,0.194 -0.621,0.349 -0.952,0.465c-0.331,0.117 -0.668,0.198 -1.01,0.246c-0.343,0.048 -0.676,0.072 -0.997,0.072c-0.638,-0 -1.231,-0.106 -1.78,-0.318c-0.548,-0.211 -1.025,-0.524 -1.431,-0.939c-0.405,-0.414 -0.724,-0.927 -0.956,-1.538c-0.233,-0.611 -0.349,-1.319 -0.349,-2.123c-0,-0.626 0.101,-1.215 0.304,-1.766c0.203,-0.552 0.493,-1.032 0.872,-1.44c0.378,-0.408 0.84,-0.732 1.386,-0.97c0.545,-0.239 1.161,-0.358 1.846,-0.358c0.579,0 1.112,0.093 1.601,0.277c0.489,0.185 0.909,0.455 1.261,0.81c0.351,0.354 0.627,0.79 0.827,1.305c0.199,0.516 0.299,1.104 0.299,1.766c0,0.334 -0.035,0.559 -0.107,0.675c-0.072,0.117 -0.209,0.175 -0.411,0.175l-5.678,-0Z" style="fill:#fff;fill-rule:nonzero;"/><path d="M127.52,40.803c-0.638,0.03 -1.174,0.085 -1.61,0.166c-0.435,0.08 -0.783,0.183 -1.046,0.308c-0.262,0.125 -0.45,0.271 -0.563,0.438c-0.113,0.167 -0.17,0.349 -0.17,0.546c0,0.387 0.115,0.664 0.344,0.831c0.23,0.167 0.529,0.251 0.899,0.251c0.453,-0 0.845,-0.082 1.176,-0.246c0.331,-0.164 0.654,-0.413 0.97,-0.747l0,-1.547Zm-5.061,-3.979c1.055,-0.966 2.325,-1.449 3.809,-1.449c0.537,0 1.017,0.088 1.44,0.264c0.423,0.176 0.781,0.42 1.073,0.733c0.292,0.313 0.514,0.687 0.666,1.123c0.152,0.435 0.228,0.912 0.228,1.43l-0,5.795l-1.001,-0c-0.209,-0 -0.37,-0.032 -0.483,-0.094c-0.114,-0.063 -0.203,-0.19 -0.269,-0.38l-0.196,-0.662c-0.233,0.209 -0.459,0.392 -0.68,0.55c-0.22,0.158 -0.45,0.291 -0.688,0.398c-0.239,0.107 -0.494,0.189 -0.765,0.246c-0.271,0.056 -0.571,0.085 -0.899,0.085c-0.387,-0 -0.745,-0.053 -1.073,-0.157c-0.327,-0.104 -0.611,-0.261 -0.849,-0.469c-0.239,-0.209 -0.423,-0.468 -0.554,-0.778c-0.132,-0.31 -0.197,-0.671 -0.197,-1.082c-0,-0.233 0.039,-0.464 0.116,-0.693c0.078,-0.23 0.204,-0.449 0.38,-0.657c0.176,-0.209 0.404,-0.406 0.684,-0.591c0.28,-0.184 0.625,-0.345 1.033,-0.482c0.408,-0.138 0.884,-0.249 1.426,-0.336c0.543,-0.086 1.163,-0.138 1.86,-0.156l0,-0.537c0,-0.614 -0.131,-1.068 -0.393,-1.363c-0.263,-0.295 -0.641,-0.443 -1.136,-0.443c-0.358,0 -0.654,0.042 -0.89,0.125c-0.235,0.084 -0.442,0.178 -0.621,0.282c-0.179,0.104 -0.341,0.198 -0.488,0.282c-0.146,0.083 -0.308,0.125 -0.487,0.125c-0.155,-0 -0.286,-0.04 -0.393,-0.121c-0.108,-0.08 -0.194,-0.174 -0.26,-0.282l-0.393,-0.706Z" style="fill:#fff;fill-rule:nonzero;"/><path d="M139.654,35.545l0,9.175l-1.35,-0c-0.292,-0 -0.477,-0.135 -0.555,-0.403l-0.152,-0.733c-0.375,0.381 -0.789,0.69 -1.242,0.925c-0.454,0.236 -0.987,0.354 -1.601,0.354c-0.501,-0 -0.943,-0.085 -1.328,-0.255c-0.384,-0.17 -0.708,-0.41 -0.97,-0.72c-0.262,-0.31 -0.461,-0.678 -0.595,-1.104c-0.134,-0.427 -0.201,-0.896 -0.201,-1.409l0,-5.83l2.209,0l-0,5.83c-0,0.561 0.129,0.994 0.389,1.301c0.259,0.307 0.648,0.461 1.167,0.461c0.381,-0 0.739,-0.085 1.073,-0.255c0.333,-0.17 0.649,-0.404 0.947,-0.702l0,-6.635l2.209,0Z" style="fill:#fff;fill-rule:nonzero;"/><path d="M150.626,37.2l-0,4.971c-0,0.286 0.071,0.51 0.214,0.671c0.143,0.161 0.334,0.241 0.573,0.241c0.137,0 0.251,-0.016 0.344,-0.049c0.092,-0.033 0.173,-0.067 0.241,-0.103c0.069,-0.036 0.13,-0.07 0.184,-0.103c0.053,-0.032 0.107,-0.049 0.16,-0.049c0.066,0 0.12,0.017 0.161,0.049c0.042,0.033 0.087,0.082 0.135,0.148l0.661,1.073c-0.322,0.268 -0.69,0.471 -1.104,0.608c-0.414,0.137 -0.845,0.206 -1.292,0.206c-0.799,-0 -1.413,-0.225 -1.842,-0.675c-0.429,-0.451 -0.644,-1.072 -0.644,-1.865l0,-5.123l-3.729,-0l0,7.52l-2.208,-0l-0,-7.512l-0.796,-0.125c-0.173,-0.035 -0.312,-0.097 -0.416,-0.183c-0.104,-0.086 -0.156,-0.21 -0.156,-0.371l-0,-0.903l1.368,-0l-0,-0.68c-0,-0.524 0.079,-0.995 0.237,-1.413c0.158,-0.417 0.384,-0.772 0.679,-1.064c0.295,-0.292 0.654,-0.515 1.078,-0.67c0.423,-0.155 0.9,-0.233 1.43,-0.233c0.424,0 0.817,0.057 1.181,0.17l-0.045,1.109c-0.006,0.083 -0.03,0.15 -0.072,0.201c-0.041,0.051 -0.096,0.089 -0.165,0.116c-0.069,0.027 -0.148,0.045 -0.237,0.054c-0.089,0.009 -0.185,0.013 -0.286,0.013c-0.262,0 -0.496,0.029 -0.702,0.085c-0.206,0.057 -0.38,0.155 -0.523,0.295c-0.143,0.14 -0.252,0.325 -0.326,0.555c-0.075,0.229 -0.112,0.514 -0.112,0.854l-0,0.608l3.898,-0l0.474,-2.513c0.03,-0.119 0.087,-0.211 0.17,-0.277c0.084,-0.066 0.191,-0.098 0.322,-0.098l1.145,-0l-0,2.888l2.45,-0l-0,1.574l-2.45,-0Z" style="fill:#fff;fill-rule:nonzero;"/><path d="M156.572,37.137c0.286,-0.548 0.626,-0.979 1.019,-1.292c0.394,-0.313 0.859,-0.47 1.395,-0.47c0.423,0 0.763,0.093 1.02,0.278l-0.143,1.654c-0.03,0.107 -0.074,0.183 -0.13,0.228c-0.057,0.045 -0.133,0.067 -0.228,0.067c-0.09,-0 -0.222,-0.015 -0.398,-0.045c-0.176,-0.03 -0.347,-0.045 -0.514,-0.045c-0.245,0 -0.462,0.036 -0.653,0.108c-0.191,0.071 -0.362,0.174 -0.514,0.308c-0.152,0.134 -0.286,0.297 -0.403,0.488c-0.116,0.19 -0.225,0.408 -0.326,0.652l0,5.652l-2.209,-0l0,-9.175l1.297,0c0.227,0 0.385,0.041 0.474,0.121c0.089,0.08 0.149,0.225 0.179,0.434l0.134,1.037Z" style="fill:#fff;fill-rule:nonzero;"/><path d="M165.889,40.803c-0.638,0.03 -1.174,0.085 -1.609,0.166c-0.435,0.08 -0.784,0.183 -1.046,0.308c-0.263,0.125 -0.45,0.271 -0.564,0.438c-0.113,0.167 -0.17,0.349 -0.17,0.546c0,0.387 0.115,0.664 0.345,0.831c0.229,0.167 0.529,0.251 0.898,0.251c0.453,-0 0.845,-0.082 1.176,-0.246c0.331,-0.164 0.654,-0.413 0.97,-0.747l0,-1.547Zm-5.061,-3.979c1.055,-0.966 2.325,-1.449 3.809,-1.449c0.537,0 1.017,0.088 1.44,0.264c0.423,0.176 0.781,0.42 1.073,0.733c0.292,0.313 0.514,0.687 0.666,1.123c0.152,0.435 0.228,0.912 0.228,1.43l0,5.795l-1.001,-0c-0.209,-0 -0.37,-0.032 -0.483,-0.094c-0.113,-0.063 -0.203,-0.19 -0.268,-0.38l-0.197,-0.662c-0.233,0.209 -0.459,0.392 -0.68,0.55c-0.22,0.158 -0.45,0.291 -0.688,0.398c-0.239,0.107 -0.493,0.189 -0.765,0.246c-0.271,0.056 -0.57,0.085 -0.898,0.085c-0.388,-0 -0.745,-0.053 -1.073,-0.157c-0.328,-0.104 -0.611,-0.261 -0.85,-0.469c-0.238,-0.209 -0.423,-0.468 -0.554,-0.778c-0.131,-0.31 -0.197,-0.671 -0.197,-1.082c0,-0.233 0.039,-0.464 0.116,-0.693c0.078,-0.23 0.205,-0.449 0.38,-0.657c0.176,-0.209 0.404,-0.406 0.684,-0.591c0.281,-0.184 0.625,-0.345 1.033,-0.482c0.409,-0.138 0.884,-0.249 1.426,-0.336c0.543,-0.086 1.163,-0.138 1.86,-0.156l0,-0.537c0,-0.614 -0.131,-1.068 -0.393,-1.363c-0.262,-0.295 -0.641,-0.443 -1.136,-0.443c-0.357,0 -0.654,0.042 -0.889,0.125c-0.236,0.084 -0.443,0.178 -0.622,0.282c-0.179,0.104 -0.341,0.198 -0.487,0.282c-0.146,0.083 -0.309,0.125 -0.488,0.125c-0.155,-0 -0.286,-0.04 -0.393,-0.121c-0.107,-0.08 -0.194,-0.174 -0.259,-0.282l-0.394,-0.706Z" style="fill:#fff;fill-rule:nonzero;"/><path d="M173.472,39.909c0.274,-0 0.513,-0.037 0.715,-0.112c0.203,-0.074 0.371,-0.177 0.506,-0.308c0.134,-0.132 0.235,-0.289 0.304,-0.474c0.068,-0.185 0.102,-0.388 0.102,-0.608c0,-0.453 -0.135,-0.813 -0.406,-1.078c-0.272,-0.265 -0.679,-0.398 -1.221,-0.398c-0.543,0 -0.949,0.133 -1.221,0.398c-0.271,0.265 -0.406,0.625 -0.406,1.078c-0,0.214 0.034,0.414 0.102,0.599c0.069,0.185 0.17,0.344 0.304,0.478c0.135,0.134 0.304,0.239 0.51,0.313c0.206,0.075 0.443,0.112 0.711,0.112Zm2.495,5.222c-0,-0.179 -0.054,-0.325 -0.161,-0.438c-0.108,-0.113 -0.254,-0.201 -0.438,-0.264c-0.185,-0.063 -0.401,-0.109 -0.649,-0.139c-0.247,-0.029 -0.509,-0.052 -0.787,-0.067c-0.277,-0.015 -0.563,-0.028 -0.858,-0.04c-0.295,-0.012 -0.583,-0.036 -0.863,-0.071c-0.244,0.137 -0.442,0.298 -0.594,0.482c-0.152,0.185 -0.228,0.4 -0.228,0.644c-0,0.161 0.04,0.312 0.12,0.452c0.081,0.14 0.209,0.261 0.385,0.362c0.176,0.101 0.404,0.18 0.684,0.237c0.28,0.057 0.623,0.085 1.028,0.085c0.411,-0 0.766,-0.031 1.064,-0.094c0.298,-0.063 0.544,-0.149 0.738,-0.259c0.194,-0.111 0.335,-0.242 0.425,-0.394c0.089,-0.152 0.134,-0.317 0.134,-0.496Zm2.199,-9.273l0,0.823c0,0.262 -0.158,0.423 -0.474,0.483l-0.822,0.152c0.125,0.316 0.188,0.661 0.188,1.037c-0,0.453 -0.091,0.863 -0.273,1.23c-0.182,0.366 -0.434,0.678 -0.756,0.934c-0.322,0.256 -0.702,0.454 -1.14,0.595c-0.438,0.14 -0.91,0.21 -1.417,0.21c-0.179,-0 -0.352,-0.009 -0.519,-0.027c-0.167,-0.018 -0.331,-0.042 -0.491,-0.072c-0.287,0.173 -0.43,0.367 -0.43,0.582c0,0.184 0.085,0.32 0.255,0.406c0.17,0.087 0.395,0.148 0.675,0.184c0.28,0.035 0.599,0.058 0.957,0.067c0.358,0.009 0.724,0.028 1.1,0.058c0.375,0.03 0.742,0.082 1.1,0.156c0.357,0.075 0.676,0.193 0.956,0.354c0.281,0.161 0.506,0.38 0.676,0.657c0.169,0.277 0.254,0.633 0.254,1.068c0,0.406 -0.099,0.799 -0.299,1.181c-0.2,0.381 -0.489,0.721 -0.867,1.019c-0.379,0.298 -0.844,0.538 -1.395,0.72c-0.552,0.182 -1.179,0.273 -1.883,0.273c-0.691,-0 -1.293,-0.067 -1.806,-0.202c-0.513,-0.134 -0.939,-0.313 -1.279,-0.536c-0.339,-0.224 -0.593,-0.481 -0.76,-0.774c-0.167,-0.292 -0.25,-0.596 -0.25,-0.912c0,-0.429 0.13,-0.788 0.389,-1.077c0.259,-0.289 0.615,-0.52 1.069,-0.693c-0.245,-0.125 -0.439,-0.292 -0.582,-0.501c-0.143,-0.209 -0.214,-0.483 -0.214,-0.823c-0,-0.137 0.025,-0.278 0.076,-0.424c0.05,-0.146 0.125,-0.291 0.223,-0.434c0.099,-0.143 0.222,-0.279 0.371,-0.407c0.149,-0.128 0.325,-0.243 0.528,-0.344c-0.465,-0.25 -0.83,-0.584 -1.095,-1.002c-0.266,-0.417 -0.398,-0.906 -0.398,-1.466c-0,-0.453 0.091,-0.863 0.272,-1.229c0.182,-0.367 0.436,-0.68 0.76,-0.939c0.325,-0.26 0.71,-0.458 1.154,-0.595c0.444,-0.137 0.928,-0.206 1.453,-0.206c0.393,0 0.763,0.041 1.109,0.121c0.345,0.081 0.661,0.198 0.948,0.353l2.637,0Z" style="fill:#fff;fill-rule:nonzero;"/><path d="M185.311,39.077c-0,-0.286 -0.04,-0.556 -0.121,-0.809c-0.08,-0.253 -0.201,-0.475 -0.362,-0.666c-0.161,-0.191 -0.365,-0.341 -0.612,-0.452c-0.248,-0.11 -0.535,-0.165 -0.863,-0.165c-0.638,-0 -1.14,0.182 -1.507,0.545c-0.367,0.364 -0.601,0.88 -0.702,1.547l4.167,0Zm-4.212,1.333c0.036,0.471 0.12,0.877 0.251,1.22c0.131,0.343 0.304,0.626 0.518,0.85c0.215,0.223 0.47,0.39 0.765,0.5c0.295,0.111 0.621,0.166 0.979,0.166c0.358,-0 0.666,-0.042 0.925,-0.125c0.26,-0.084 0.486,-0.176 0.68,-0.278c0.194,-0.101 0.364,-0.193 0.51,-0.277c0.146,-0.083 0.287,-0.125 0.424,-0.125c0.185,0 0.322,0.069 0.412,0.206l0.635,0.804c-0.245,0.287 -0.519,0.527 -0.823,0.72c-0.304,0.194 -0.621,0.349 -0.952,0.465c-0.331,0.117 -0.668,0.198 -1.011,0.246c-0.343,0.048 -0.675,0.072 -0.997,0.072c-0.638,-0 -1.231,-0.106 -1.779,-0.318c-0.549,-0.211 -1.026,-0.524 -1.431,-0.939c-0.405,-0.414 -0.724,-0.927 -0.957,-1.538c-0.232,-0.611 -0.348,-1.319 -0.348,-2.123c-0,-0.626 0.101,-1.215 0.304,-1.766c0.202,-0.552 0.493,-1.032 0.871,-1.44c0.379,-0.408 0.841,-0.732 1.386,-0.97c0.546,-0.239 1.161,-0.358 1.847,-0.358c0.578,0 1.112,0.093 1.601,0.277c0.488,0.185 0.909,0.455 1.26,0.81c0.352,0.354 0.628,0.79 0.827,1.305c0.2,0.516 0.3,1.104 0.3,1.766c-0,0.334 -0.036,0.559 -0.107,0.675c-0.072,0.117 -0.209,0.175 -0.412,0.175l-5.678,-0Z" style="fill:#fff;fill-rule:nonzero;"/><path d="M191.016,36.672c0.185,-0.185 0.38,-0.356 0.585,-0.514c0.206,-0.158 0.424,-0.292 0.653,-0.403c0.23,-0.11 0.476,-0.196 0.738,-0.259c0.262,-0.062 0.548,-0.094 0.858,-0.094c0.501,0 0.945,0.085 1.333,0.255c0.387,0.17 0.711,0.408 0.97,0.715c0.259,0.307 0.456,0.674 0.59,1.1c0.134,0.426 0.201,0.896 0.201,1.409l0,5.839l-2.208,-0l-0,-5.839c-0,-0.561 -0.129,-0.994 -0.385,-1.301c-0.256,-0.307 -0.647,-0.461 -1.171,-0.461c-0.382,0 -0.74,0.086 -1.073,0.259c-0.334,0.173 -0.65,0.409 -0.948,0.707l-0,6.635l-2.209,-0l0,-9.175l1.35,0c0.287,0 0.474,0.134 0.564,0.403l0.152,0.724Z" style="fill:#fff;fill-rule:nonzero;"/><path d="M201.505,31.79l-0,5.114c-0,0.543 -0.027,1.075 -0.081,1.597c-0.054,0.521 -0.122,1.074 -0.206,1.658l-1.502,0c-0.083,-0.584 -0.152,-1.137 -0.206,-1.658c-0.053,-0.522 -0.08,-1.054 -0.08,-1.597l0,-5.114l2.075,-0Zm-2.424,11.714c0,-0.185 0.035,-0.361 0.103,-0.528c0.069,-0.167 0.164,-0.31 0.286,-0.429c0.122,-0.119 0.267,-0.215 0.434,-0.286c0.167,-0.072 0.346,-0.108 0.536,-0.108c0.185,0 0.361,0.036 0.528,0.108c0.167,0.071 0.311,0.167 0.434,0.286c0.122,0.119 0.219,0.262 0.29,0.429c0.072,0.167 0.108,0.343 0.108,0.528c-0,0.19 -0.036,0.368 -0.108,0.532c-0.071,0.163 -0.168,0.305 -0.29,0.424c-0.123,0.12 -0.267,0.213 -0.434,0.282c-0.167,0.068 -0.343,0.103 -0.528,0.103c-0.19,-0 -0.369,-0.035 -0.536,-0.103c-0.167,-0.069 -0.312,-0.162 -0.434,-0.282c-0.122,-0.119 -0.217,-0.261 -0.286,-0.424c-0.068,-0.164 -0.103,-0.342 -0.103,-0.532Z" style="fill:#fff;fill-rule:nonzero;"/><path d="M22.35,53.227l-1.992,5.97l-0.426,0c-0.068,0 -0.114,-0.042 -0.138,-0.126l-1.632,-4.848c-0.02,-0.06 -0.038,-0.12 -0.054,-0.18c-0.016,-0.06 -0.03,-0.12 -0.042,-0.18c-0.02,0.12 -0.05,0.24 -0.09,0.36l-1.656,4.848c-0.024,0.084 -0.072,0.126 -0.144,0.126l-0.408,0l-1.992,-5.97l0.432,0c0.056,0 0.102,0.015 0.138,0.045c0.036,0.03 0.06,0.063 0.072,0.099l1.506,4.71c0.024,0.092 0.046,0.181 0.066,0.267c0.02,0.086 0.036,0.171 0.048,0.255c0.024,-0.084 0.048,-0.169 0.072,-0.255c0.024,-0.086 0.052,-0.175 0.084,-0.267l1.596,-4.752c0.028,-0.088 0.084,-0.132 0.168,-0.132l0.234,0c0.088,0 0.146,0.044 0.174,0.132l1.584,4.752c0.028,0.092 0.054,0.18 0.078,0.264c0.024,0.084 0.046,0.168 0.066,0.252c0.016,-0.084 0.033,-0.168 0.051,-0.252c0.018,-0.084 0.041,-0.172 0.069,-0.264l1.518,-4.71c0.016,-0.044 0.042,-0.079 0.078,-0.105c0.036,-0.026 0.078,-0.039 0.126,-0.039l0.414,0Z" style="fill:#fff;fill-rule:nonzero;"/><path d="M27.75,55.609c0,-0.32 -0.045,-0.607 -0.135,-0.861c-0.09,-0.254 -0.217,-0.469 -0.381,-0.645c-0.164,-0.176 -0.359,-0.311 -0.585,-0.405c-0.226,-0.094 -0.475,-0.141 -0.747,-0.141c-0.308,0 -0.584,0.048 -0.828,0.144c-0.244,0.096 -0.455,0.234 -0.633,0.414c-0.178,0.18 -0.321,0.396 -0.429,0.648c-0.108,0.252 -0.18,0.534 -0.216,0.846l3.954,0Zm-3.984,0.366l0,0.114c0,0.448 0.052,0.842 0.156,1.182c0.104,0.34 0.252,0.625 0.444,0.855c0.192,0.23 0.424,0.403 0.696,0.519c0.272,0.116 0.576,0.174 0.912,0.174c0.3,0 0.56,-0.033 0.78,-0.099c0.22,-0.066 0.405,-0.14 0.555,-0.222c0.15,-0.082 0.269,-0.156 0.357,-0.222c0.088,-0.066 0.152,-0.099 0.192,-0.099c0.052,0 0.092,0.02 0.12,0.06l0.156,0.192c-0.096,0.12 -0.223,0.232 -0.381,0.336c-0.158,0.104 -0.334,0.193 -0.528,0.267c-0.194,0.074 -0.402,0.133 -0.624,0.177c-0.222,0.044 -0.445,0.066 -0.669,0.066c-0.408,0 -0.78,-0.071 -1.116,-0.213c-0.336,-0.142 -0.624,-0.349 -0.864,-0.621c-0.24,-0.272 -0.425,-0.605 -0.555,-0.999c-0.13,-0.394 -0.195,-0.845 -0.195,-1.353c0,-0.428 0.061,-0.823 0.183,-1.185c0.122,-0.362 0.298,-0.674 0.528,-0.936c0.23,-0.262 0.512,-0.467 0.846,-0.615c0.334,-0.148 0.713,-0.222 1.137,-0.222c0.336,0 0.648,0.058 0.936,0.174c0.288,0.116 0.538,0.285 0.75,0.507c0.212,0.222 0.379,0.495 0.501,0.819c0.122,0.324 0.183,0.696 0.183,1.116c0,0.088 -0.012,0.148 -0.036,0.18c-0.024,0.032 -0.064,0.048 -0.12,0.048l-4.344,0Z" style="fill:#fff;fill-rule:nonzero;"/><path d="M30.456,53.227l0,5.97l-0.57,0l0,-5.97l0.57,0Zm0.246,-2.058c0,0.072 -0.015,0.139 -0.045,0.201c-0.03,0.062 -0.069,0.117 -0.117,0.165c-0.048,0.048 -0.104,0.086 -0.168,0.114c-0.064,0.028 -0.132,0.042 -0.204,0.042c-0.072,0 -0.14,-0.014 -0.204,-0.042c-0.064,-0.028 -0.12,-0.066 -0.168,-0.114c-0.048,-0.048 -0.086,-0.103 -0.114,-0.165c-0.028,-0.062 -0.042,-0.129 -0.042,-0.201c0,-0.072 0.014,-0.141 0.042,-0.207c0.028,-0.066 0.066,-0.123 0.114,-0.171c0.048,-0.048 0.104,-0.086 0.168,-0.114c0.064,-0.028 0.132,-0.042 0.204,-0.042c0.072,0 0.14,0.014 0.204,0.042c0.064,0.028 0.12,0.066 0.168,0.114c0.048,0.048 0.087,0.105 0.117,0.171c0.03,0.066 0.045,0.135 0.045,0.207Z" style="fill:#fff;fill-rule:nonzero;"/><path d="M34.122,59.293c-0.404,0 -0.719,-0.112 -0.945,-0.336c-0.226,-0.224 -0.339,-0.57 -0.339,-1.038l0,-4.08l-0.858,0c-0.044,0 -0.08,-0.012 -0.108,-0.036c-0.028,-0.024 -0.042,-0.058 -0.042,-0.102l0,-0.222l1.02,-0.072l0.144,-2.136c0.008,-0.036 0.024,-0.068 0.048,-0.096c0.024,-0.028 0.058,-0.042 0.102,-0.042l0.27,0l0,2.28l1.884,0l0,0.426l-1.884,0l0,4.05c0,0.164 0.021,0.305 0.063,0.423c0.042,0.118 0.1,0.215 0.174,0.291c0.074,0.076 0.161,0.132 0.261,0.168c0.1,0.036 0.208,0.054 0.324,0.054c0.144,0 0.268,-0.021 0.372,-0.063c0.104,-0.042 0.194,-0.088 0.27,-0.138c0.076,-0.05 0.138,-0.096 0.186,-0.138c0.048,-0.042 0.086,-0.063 0.114,-0.063c0.032,0 0.064,0.02 0.096,0.06l0.156,0.252c-0.152,0.168 -0.345,0.303 -0.579,0.405c-0.234,0.102 -0.477,0.153 -0.729,0.153Z" style="fill:#fff;fill-rule:nonzero;"/><path d="M40.77,55.609c0,-0.32 -0.045,-0.607 -0.135,-0.861c-0.09,-0.254 -0.217,-0.469 -0.381,-0.645c-0.164,-0.176 -0.359,-0.311 -0.585,-0.405c-0.226,-0.094 -0.475,-0.141 -0.747,-0.141c-0.308,0 -0.584,0.048 -0.828,0.144c-0.244,0.096 -0.455,0.234 -0.633,0.414c-0.178,0.18 -0.321,0.396 -0.429,0.648c-0.108,0.252 -0.18,0.534 -0.216,0.846l3.954,0Zm-3.984,0.366l0,0.114c0,0.448 0.052,0.842 0.156,1.182c0.104,0.34 0.252,0.625 0.444,0.855c0.192,0.23 0.424,0.403 0.696,0.519c0.272,0.116 0.576,0.174 0.912,0.174c0.3,0 0.56,-0.033 0.78,-0.099c0.22,-0.066 0.405,-0.14 0.555,-0.222c0.15,-0.082 0.269,-0.156 0.357,-0.222c0.088,-0.066 0.152,-0.099 0.192,-0.099c0.052,0 0.092,0.02 0.12,0.06l0.156,0.192c-0.096,0.12 -0.223,0.232 -0.381,0.336c-0.158,0.104 -0.334,0.193 -0.528,0.267c-0.194,0.074 -0.402,0.133 -0.624,0.177c-0.222,0.044 -0.445,0.066 -0.669,0.066c-0.408,0 -0.78,-0.071 -1.116,-0.213c-0.336,-0.142 -0.624,-0.349 -0.864,-0.621c-0.24,-0.272 -0.425,-0.605 -0.555,-0.999c-0.13,-0.394 -0.195,-0.845 -0.195,-1.353c0,-0.428 0.061,-0.823 0.183,-1.185c0.122,-0.362 0.298,-0.674 0.528,-0.936c0.23,-0.262 0.512,-0.467 0.846,-0.615c0.334,-0.148 0.713,-0.222 1.137,-0.222c0.336,0 0.648,0.058 0.936,0.174c0.288,0.116 0.538,0.285 0.75,0.507c0.212,0.222 0.379,0.495 0.501,0.819c0.122,0.324 0.183,0.696 0.183,1.116c0,0.088 -0.012,0.148 -0.036,0.18c-0.024,0.032 -0.064,0.048 -0.12,0.048l-4.344,0Z" style="fill:#fff;fill-rule:nonzero;"/><path d="M43.386,54.667c0.092,-0.244 0.197,-0.461 0.315,-0.651c0.118,-0.19 0.254,-0.351 0.408,-0.483c0.154,-0.132 0.326,-0.233 0.516,-0.303c0.19,-0.07 0.401,-0.105 0.633,-0.105c0.124,0 0.246,0.011 0.366,0.033c0.12,0.022 0.226,0.061 0.318,0.117l-0.048,0.396c-0.02,0.064 -0.058,0.096 -0.114,0.096c-0.048,0 -0.121,-0.014 -0.219,-0.042c-0.098,-0.028 -0.227,-0.042 -0.387,-0.042c-0.232,0 -0.437,0.035 -0.615,0.105c-0.178,0.07 -0.338,0.175 -0.48,0.315c-0.142,0.14 -0.266,0.313 -0.372,0.519c-0.106,0.206 -0.203,0.443 -0.291,0.711l0,3.864l-0.576,0l0,-5.97l0.306,0c0.068,0 0.116,0.014 0.144,0.042c0.028,0.028 0.046,0.076 0.054,0.144l0.042,1.254Z" style="fill:#fff;fill-rule:nonzero;"/><path d="M54,53.227l0,0.24c0,0.084 -0.028,0.16 -0.084,0.228l-3.738,5.052l3.672,0l0,0.45l-4.362,0l0,-0.228c0,-0.068 0.03,-0.142 0.09,-0.222l3.75,-5.07l-3.642,0l0,-0.45l4.314,0Z" style="fill:#fff;fill-rule:nonzero;"/><path d="M60.036,53.227l0,5.97l-0.318,0c-0.1,0 -0.158,-0.052 -0.174,-0.156l-0.054,-0.888c-0.276,0.344 -0.595,0.62 -0.957,0.828c-0.362,0.208 -0.765,0.312 -1.209,0.312c-0.332,0 -0.622,-0.052 -0.87,-0.156c-0.248,-0.104 -0.454,-0.254 -0.618,-0.45c-0.164,-0.196 -0.288,-0.432 -0.372,-0.708c-0.084,-0.276 -0.126,-0.588 -0.126,-0.936l0,-3.816l0.576,0l0,3.816c0,0.56 0.128,0.999 0.384,1.317c0.256,0.318 0.646,0.477 1.17,0.477c0.388,0 0.751,-0.099 1.089,-0.297c0.338,-0.198 0.639,-0.473 0.903,-0.825l0,-4.488l0.576,0Z" style="fill:#fff;fill-rule:nonzero;"/><path d="M72.894,53.227l-1.992,5.97l-0.426,0c-0.068,0 -0.114,-0.042 -0.138,-0.126l-1.632,-4.848c-0.02,-0.06 -0.038,-0.12 -0.054,-0.18c-0.016,-0.06 -0.03,-0.12 -0.042,-0.18c-0.02,0.12 -0.05,0.24 -0.09,0.36l-1.656,4.848c-0.024,0.084 -0.072,0.126 -0.144,0.126l-0.408,0l-1.992,-5.97l0.432,0c0.056,0 0.102,0.015 0.138,0.045c0.036,0.03 0.06,0.063 0.072,0.099l1.506,4.71c0.024,0.092 0.046,0.181 0.066,0.267c0.02,0.086 0.036,0.171 0.048,0.255c0.024,-0.084 0.048,-0.169 0.072,-0.255c0.024,-0.086 0.052,-0.175 0.084,-0.267l1.596,-4.752c0.028,-0.088 0.084,-0.132 0.168,-0.132l0.234,0c0.088,0 0.146,0.044 0.174,0.132l1.584,4.752c0.028,0.092 0.054,0.18 0.078,0.264c0.024,0.084 0.046,0.168 0.066,0.252c0.016,-0.084 0.033,-0.168 0.051,-0.252c0.018,-0.084 0.041,-0.172 0.069,-0.264l1.518,-4.71c0.016,-0.044 0.042,-0.079 0.078,-0.105c0.036,-0.026 0.078,-0.039 0.126,-0.039l0.414,0Z" style="fill:#fff;fill-rule:nonzero;"/><path d="M82.068,53.227l-1.992,5.97l-0.426,0c-0.068,0 -0.114,-0.042 -0.138,-0.126l-1.632,-4.848c-0.02,-0.06 -0.038,-0.12 -0.054,-0.18c-0.016,-0.06 -0.03,-0.12 -0.042,-0.18c-0.02,0.12 -0.05,0.24 -0.09,0.36l-1.656,4.848c-0.024,0.084 -0.072,0.126 -0.144,0.126l-0.408,0l-1.992,-5.97l0.432,0c0.056,0 0.102,0.015 0.138,0.045c0.036,0.03 0.06,0.063 0.072,0.099l1.506,4.71c0.024,0.092 0.046,0.181 0.066,0.267c0.02,0.086 0.036,0.171 0.048,0.255c0.024,-0.084 0.048,-0.169 0.072,-0.255c0.024,-0.086 0.052,-0.175 0.084,-0.267l1.596,-4.752c0.028,-0.088 0.084,-0.132 0.168,-0.132l0.234,0c0.088,0 0.146,0.044 0.174,0.132l1.584,4.752c0.028,0.092 0.054,0.18 0.078,0.264c0.024,0.084 0.046,0.168 0.066,0.252c0.016,-0.084 0.033,-0.168 0.051,-0.252c0.018,-0.084 0.041,-0.172 0.069,-0.264l1.518,-4.71c0.016,-0.044 0.042,-0.079 0.078,-0.105c0.036,-0.026 0.078,-0.039 0.126,-0.039l0.414,0Z" style="fill:#fff;fill-rule:nonzero;"/><path d="M91.242,53.227l-1.992,5.97l-0.426,0c-0.068,0 -0.114,-0.042 -0.138,-0.126l-1.632,-4.848c-0.02,-0.06 -0.038,-0.12 -0.054,-0.18c-0.016,-0.06 -0.03,-0.12 -0.042,-0.18c-0.02,0.12 -0.05,0.24 -0.09,0.36l-1.656,4.848c-0.024,0.084 -0.072,0.126 -0.144,0.126l-0.408,0l-1.992,-5.97l0.432,0c0.056,0 0.102,0.015 0.138,0.045c0.036,0.03 0.06,0.063 0.072,0.099l1.506,4.71c0.024,0.092 0.046,0.181 0.066,0.267c0.02,0.086 0.036,0.171 0.048,0.255c0.024,-0.084 0.048,-0.169 0.072,-0.255c0.024,-0.086 0.052,-0.175 0.084,-0.267l1.596,-4.752c0.028,-0.088 0.084,-0.132 0.168,-0.132l0.234,0c0.088,0 0.146,0.044 0.174,0.132l1.584,4.752c0.028,0.092 0.054,0.18 0.078,0.264c0.024,0.084 0.046,0.168 0.066,0.252c0.016,-0.084 0.033,-0.168 0.051,-0.252c0.018,-0.084 0.041,-0.172 0.069,-0.264l1.518,-4.71c0.016,-0.044 0.042,-0.079 0.078,-0.105c0.036,-0.026 0.078,-0.039 0.126,-0.039l0.414,0Z" style="fill:#fff;fill-rule:nonzero;"/><path d="M92.13,58.735c0,-0.076 0.014,-0.148 0.042,-0.216c0.028,-0.068 0.067,-0.127 0.117,-0.177c0.05,-0.05 0.108,-0.09 0.174,-0.12c0.066,-0.03 0.139,-0.045 0.219,-0.045c0.076,0 0.148,0.015 0.216,0.045c0.068,0.03 0.127,0.07 0.177,0.12c0.05,0.05 0.09,0.109 0.12,0.177c0.03,0.068 0.045,0.14 0.045,0.216c0,0.08 -0.015,0.153 -0.045,0.219c-0.03,0.066 -0.07,0.124 -0.12,0.174c-0.05,0.05 -0.109,0.089 -0.177,0.117c-0.068,0.028 -0.14,0.042 -0.216,0.042c-0.156,0 -0.287,-0.053 -0.393,-0.159c-0.106,-0.106 -0.159,-0.237 -0.159,-0.393Z" style="fill:#fff;fill-rule:nonzero;"/><path d="M98.412,56.311c-0.568,0.02 -1.057,0.065 -1.467,0.135c-0.41,0.07 -0.748,0.165 -1.014,0.285c-0.266,0.12 -0.463,0.263 -0.591,0.429c-0.128,0.166 -0.192,0.355 -0.192,0.567c0,0.2 0.033,0.373 0.099,0.519c0.066,0.146 0.154,0.266 0.264,0.36c0.11,0.094 0.237,0.163 0.381,0.207c0.144,0.044 0.294,0.066 0.45,0.066c0.232,0 0.445,-0.025 0.639,-0.075c0.194,-0.05 0.374,-0.12 0.54,-0.21c0.166,-0.09 0.321,-0.197 0.465,-0.321c0.144,-0.124 0.286,-0.258 0.426,-0.402l0,-1.56Zm-3.51,-2.238c0.312,-0.312 0.64,-0.548 0.984,-0.708c0.344,-0.16 0.734,-0.24 1.17,-0.24c0.32,0 0.6,0.051 0.84,0.153c0.24,0.102 0.439,0.248 0.597,0.438c0.158,0.19 0.277,0.42 0.357,0.69c0.08,0.27 0.12,0.571 0.12,0.903l0,3.888l-0.228,0c-0.12,0 -0.194,-0.056 -0.222,-0.168l-0.084,-0.768c-0.164,0.16 -0.327,0.304 -0.489,0.432c-0.162,0.128 -0.331,0.236 -0.507,0.324c-0.176,0.088 -0.366,0.156 -0.57,0.204c-0.204,0.048 -0.428,0.072 -0.672,0.072c-0.204,0 -0.402,-0.03 -0.594,-0.09c-0.192,-0.06 -0.363,-0.152 -0.513,-0.276c-0.15,-0.124 -0.27,-0.283 -0.36,-0.477c-0.09,-0.194 -0.135,-0.427 -0.135,-0.699c0,-0.252 0.072,-0.486 0.216,-0.702c0.144,-0.216 0.37,-0.404 0.678,-0.564c0.308,-0.16 0.703,-0.288 1.185,-0.384c0.482,-0.096 1.061,-0.152 1.737,-0.168l0,-0.624c0,-0.552 -0.119,-0.977 -0.357,-1.275c-0.238,-0.298 -0.591,-0.447 -1.059,-0.447c-0.288,0 -0.533,0.04 -0.735,0.12c-0.202,0.08 -0.373,0.168 -0.513,0.264c-0.14,0.096 -0.254,0.184 -0.342,0.264c-0.088,0.08 -0.162,0.12 -0.222,0.12c-0.044,0 -0.08,-0.01 -0.108,-0.03c-0.028,-0.02 -0.052,-0.046 -0.072,-0.078l-0.102,-0.174Z" style="fill:#fff;fill-rule:nonzero;"/><rect x="100.932" y="50.467" width="0.576" height="8.73" style="fill:#fff;fill-rule:nonzero;"/><path d="M107.718,55.609c0,-0.32 -0.045,-0.607 -0.135,-0.861c-0.09,-0.254 -0.217,-0.469 -0.381,-0.645c-0.164,-0.176 -0.359,-0.311 -0.585,-0.405c-0.226,-0.094 -0.475,-0.141 -0.747,-0.141c-0.308,0 -0.584,0.048 -0.828,0.144c-0.244,0.096 -0.455,0.234 -0.633,0.414c-0.178,0.18 -0.321,0.396 -0.429,0.648c-0.108,0.252 -0.18,0.534 -0.216,0.846l3.954,0Zm-3.984,0.366l0,0.114c0,0.448 0.052,0.842 0.156,1.182c0.104,0.34 0.252,0.625 0.444,0.855c0.192,0.23 0.424,0.403 0.696,0.519c0.272,0.116 0.576,0.174 0.912,0.174c0.3,0 0.56,-0.033 0.78,-0.099c0.22,-0.066 0.405,-0.14 0.555,-0.222c0.15,-0.082 0.269,-0.156 0.357,-0.222c0.088,-0.066 0.152,-0.099 0.192,-0.099c0.052,0 0.092,0.02 0.12,0.06l0.156,0.192c-0.096,0.12 -0.223,0.232 -0.381,0.336c-0.158,0.104 -0.334,0.193 -0.528,0.267c-0.194,0.074 -0.402,0.133 -0.624,0.177c-0.222,0.044 -0.445,0.066 -0.669,0.066c-0.408,0 -0.78,-0.071 -1.116,-0.213c-0.336,-0.142 -0.624,-0.349 -0.864,-0.621c-0.24,-0.272 -0.425,-0.605 -0.555,-0.999c-0.13,-0.394 -0.195,-0.845 -0.195,-1.353c0,-0.428 0.061,-0.823 0.183,-1.185c0.122,-0.362 0.298,-0.674 0.528,-0.936c0.23,-0.262 0.512,-0.467 0.846,-0.615c0.334,-0.148 0.713,-0.222 1.137,-0.222c0.336,0 0.648,0.058 0.936,0.174c0.288,0.116 0.538,0.285 0.75,0.507c0.212,0.222 0.379,0.495 0.501,0.819c0.122,0.324 0.183,0.696 0.183,1.116c0,0.088 -0.012,0.148 -0.036,0.18c-0.024,0.032 -0.064,0.048 -0.12,0.048l-4.344,0Z" style="fill:#fff;fill-rule:nonzero;"/><path d="M114.102,59.197l-0.546,0c-0.056,0 -0.1,-0.017 -0.132,-0.051c-0.032,-0.034 -0.058,-0.067 -0.078,-0.099l-1.812,-2.646c-0.016,0.072 -0.046,0.142 -0.09,0.21l-1.728,2.436c-0.028,0.036 -0.057,0.07 -0.087,0.102c-0.03,0.032 -0.069,0.048 -0.117,0.048l-0.516,0l2.172,-3.054l-2.088,-2.916l0.546,0c0.056,0 0.098,0.012 0.126,0.036c0.028,0.024 0.052,0.052 0.072,0.084l1.752,2.526c0.008,-0.032 0.021,-0.066 0.039,-0.102c0.018,-0.036 0.037,-0.072 0.057,-0.108l1.638,-2.31c0.024,-0.036 0.05,-0.066 0.078,-0.09c0.028,-0.024 0.064,-0.036 0.108,-0.036l0.522,0l-2.082,2.88l2.166,3.09Z" style="fill:#fff;fill-rule:nonzero;"/><path d="M115.926,57.895c0.116,0.172 0.237,0.317 0.363,0.435c0.126,0.118 0.259,0.214 0.399,0.288c0.14,0.074 0.289,0.127 0.447,0.159c0.158,0.032 0.325,0.048 0.501,0.048c0.352,0 0.66,-0.064 0.924,-0.192c0.264,-0.128 0.485,-0.309 0.663,-0.543c0.178,-0.234 0.312,-0.514 0.402,-0.84c0.09,-0.326 0.135,-0.685 0.135,-1.077c0,-0.888 -0.164,-1.541 -0.492,-1.959c-0.328,-0.418 -0.798,-0.627 -1.41,-0.627c-0.396,0 -0.754,0.102 -1.074,0.306c-0.32,0.204 -0.606,0.488 -0.858,0.852l0,3.15Zm-0.024,-3.594c0.264,-0.36 0.573,-0.646 0.927,-0.858c0.354,-0.212 0.751,-0.318 1.191,-0.318c0.732,0 1.303,0.254 1.713,0.762c0.41,0.508 0.615,1.27 0.615,2.286c0,0.436 -0.057,0.843 -0.171,1.221c-0.114,0.378 -0.282,0.706 -0.504,0.984c-0.222,0.278 -0.494,0.497 -0.816,0.657c-0.322,0.16 -0.693,0.24 -1.113,0.24c-0.404,0 -0.754,-0.074 -1.05,-0.222c-0.296,-0.148 -0.552,-0.366 -0.768,-0.654l0,2.91l-0.576,0l0,-8.082l0.318,0c0.1,0 0.158,0.05 0.174,0.15l0.06,0.924Z" style="fill:#fff;fill-rule:nonzero;"/><rect x="122.022" y="50.467" width="0.576" height="8.73" style="fill:#fff;fill-rule:nonzero;"/><path d="M129.252,53.227l0,5.97l-0.318,0c-0.1,0 -0.158,-0.052 -0.174,-0.156l-0.054,-0.888c-0.276,0.344 -0.595,0.62 -0.957,0.828c-0.362,0.208 -0.765,0.312 -1.209,0.312c-0.332,0 -0.622,-0.052 -0.87,-0.156c-0.248,-0.104 -0.454,-0.254 -0.618,-0.45c-0.164,-0.196 -0.288,-0.432 -0.372,-0.708c-0.084,-0.276 -0.126,-0.588 -0.126,-0.936l0,-3.816l0.576,0l0,3.816c0,0.56 0.128,0.999 0.384,1.317c0.256,0.318 0.646,0.477 1.17,0.477c0.388,0 0.751,-0.099 1.089,-0.297c0.338,-0.198 0.639,-0.473 0.903,-0.825l0,-4.488l0.576,0Z" style="fill:#fff;fill-rule:nonzero;"/><path d="M134.496,53.965c-0.032,0.056 -0.078,0.084 -0.138,0.084c-0.044,0 -0.1,-0.025 -0.168,-0.075c-0.068,-0.05 -0.159,-0.106 -0.273,-0.168c-0.114,-0.062 -0.255,-0.118 -0.423,-0.168c-0.168,-0.05 -0.372,-0.075 -0.612,-0.075c-0.216,0 -0.413,0.031 -0.591,0.093c-0.178,0.062 -0.33,0.145 -0.456,0.249c-0.126,0.104 -0.223,0.225 -0.291,0.363c-0.068,0.138 -0.102,0.283 -0.102,0.435c0,0.188 0.048,0.344 0.144,0.468c0.096,0.124 0.221,0.23 0.375,0.318c0.154,0.088 0.331,0.164 0.531,0.228c0.2,0.064 0.403,0.128 0.609,0.192c0.206,0.064 0.409,0.135 0.609,0.213c0.2,0.078 0.377,0.175 0.531,0.291c0.154,0.116 0.279,0.258 0.375,0.426c0.096,0.168 0.144,0.372 0.144,0.612c0,0.26 -0.046,0.502 -0.138,0.726c-0.092,0.224 -0.227,0.418 -0.405,0.582c-0.178,0.164 -0.397,0.294 -0.657,0.39c-0.26,0.096 -0.558,0.144 -0.894,0.144c-0.42,0 -0.782,-0.067 -1.086,-0.201c-0.304,-0.134 -0.576,-0.309 -0.816,-0.525l0.132,-0.204c0.02,-0.032 0.043,-0.056 0.069,-0.072c0.026,-0.016 0.061,-0.024 0.105,-0.024c0.052,0 0.115,0.032 0.189,0.096c0.074,0.064 0.173,0.133 0.297,0.207c0.124,0.074 0.277,0.143 0.459,0.207c0.182,0.064 0.407,0.096 0.675,0.096c0.252,0 0.474,-0.035 0.666,-0.105c0.192,-0.07 0.352,-0.165 0.48,-0.285c0.128,-0.12 0.225,-0.261 0.291,-0.423c0.066,-0.162 0.099,-0.333 0.099,-0.513c0,-0.2 -0.048,-0.366 -0.144,-0.498c-0.096,-0.132 -0.222,-0.244 -0.378,-0.336c-0.156,-0.092 -0.333,-0.17 -0.531,-0.234c-0.198,-0.064 -0.401,-0.128 -0.609,-0.192c-0.208,-0.064 -0.411,-0.134 -0.609,-0.21c-0.198,-0.076 -0.375,-0.172 -0.531,-0.288c-0.156,-0.116 -0.282,-0.257 -0.378,-0.423c-0.096,-0.166 -0.144,-0.373 -0.144,-0.621c0,-0.212 0.046,-0.416 0.138,-0.612c0.092,-0.196 0.223,-0.368 0.393,-0.516c0.17,-0.148 0.377,-0.266 0.621,-0.354c0.244,-0.088 0.518,-0.132 0.822,-0.132c0.364,0 0.687,0.052 0.969,0.156c0.282,0.104 0.539,0.264 0.771,0.48l-0.12,0.198Z" style="fill:#fff;fill-rule:nonzero;"/><path d="M136.176,58.735c0,-0.076 0.014,-0.148 0.042,-0.216c0.028,-0.068 0.067,-0.127 0.117,-0.177c0.05,-0.05 0.108,-0.09 0.174,-0.12c0.066,-0.03 0.139,-0.045 0.219,-0.045c0.076,0 0.148,0.015 0.216,0.045c0.068,0.03 0.127,0.07 0.177,0.12c0.05,0.05 0.09,0.109 0.12,0.177c0.03,0.068 0.045,0.14 0.045,0.216c0,0.08 -0.015,0.153 -0.045,0.219c-0.03,0.066 -0.07,0.124 -0.12,0.174c-0.05,0.05 -0.109,0.089 -0.177,0.117c-0.068,0.028 -0.14,0.042 -0.216,0.042c-0.156,0 -0.287,-0.053 -0.393,-0.159c-0.106,-0.106 -0.159,-0.237 -0.159,-0.393Z" style="fill:#fff;fill-rule:nonzero;"/><path d="M143.19,54.511c-0.228,-0.344 -0.481,-0.586 -0.759,-0.726c-0.278,-0.14 -0.595,-0.21 -0.951,-0.21c-0.352,0 -0.66,0.064 -0.924,0.192c-0.264,0.128 -0.485,0.309 -0.663,0.543c-0.178,0.234 -0.312,0.514 -0.402,0.84c-0.09,0.326 -0.135,0.685 -0.135,1.077c0,0.888 0.163,1.541 0.489,1.959c0.326,0.418 0.797,0.627 1.413,0.627c0.392,0 0.75,-0.102 1.074,-0.306c0.324,-0.204 0.61,-0.49 0.858,-0.858l0,-3.138Zm0.57,-4.044l0,8.73l-0.312,0c-0.104,0 -0.164,-0.052 -0.18,-0.156l-0.06,-0.942c-0.264,0.36 -0.572,0.646 -0.924,0.858c-0.352,0.212 -0.748,0.318 -1.188,0.318c-0.736,0 -1.308,-0.254 -1.716,-0.762c-0.408,-0.508 -0.612,-1.27 -0.612,-2.286c0,-0.436 0.057,-0.843 0.171,-1.221c0.114,-0.378 0.281,-0.706 0.501,-0.984c0.22,-0.278 0.491,-0.497 0.813,-0.657c0.322,-0.16 0.693,-0.24 1.113,-0.24c0.404,0 0.754,0.074 1.05,0.222c0.296,0.148 0.554,0.368 0.774,0.66l0,-3.54l0.57,0Z" style="fill:#fff;fill-rule:nonzero;"/><path d="M149.916,55.609c0,-0.32 -0.045,-0.607 -0.135,-0.861c-0.09,-0.254 -0.217,-0.469 -0.381,-0.645c-0.164,-0.176 -0.359,-0.311 -0.585,-0.405c-0.226,-0.094 -0.475,-0.141 -0.747,-0.141c-0.308,0 -0.584,0.048 -0.828,0.144c-0.244,0.096 -0.455,0.234 -0.633,0.414c-0.178,0.18 -0.321,0.396 -0.429,0.648c-0.108,0.252 -0.18,0.534 -0.216,0.846l3.954,0Zm-3.984,0.366l0,0.114c0,0.448 0.052,0.842 0.156,1.182c0.104,0.34 0.252,0.625 0.444,0.855c0.192,0.23 0.424,0.403 0.696,0.519c0.272,0.116 0.576,0.174 0.912,0.174c0.3,0 0.56,-0.033 0.78,-0.099c0.22,-0.066 0.405,-0.14 0.555,-0.222c0.15,-0.082 0.269,-0.156 0.357,-0.222c0.088,-0.066 0.152,-0.099 0.192,-0.099c0.052,0 0.092,0.02 0.12,0.06l0.156,0.192c-0.096,0.12 -0.223,0.232 -0.381,0.336c-0.158,0.104 -0.334,0.193 -0.528,0.267c-0.194,0.074 -0.402,0.133 -0.624,0.177c-0.222,0.044 -0.445,0.066 -0.669,0.066c-0.408,0 -0.78,-0.071 -1.116,-0.213c-0.336,-0.142 -0.624,-0.349 -0.864,-0.621c-0.24,-0.272 -0.425,-0.605 -0.555,-0.999c-0.13,-0.394 -0.195,-0.845 -0.195,-1.353c0,-0.428 0.061,-0.823 0.183,-1.185c0.122,-0.362 0.298,-0.674 0.528,-0.936c0.23,-0.262 0.512,-0.467 0.846,-0.615c0.334,-0.148 0.713,-0.222 1.137,-0.222c0.336,0 0.648,0.058 0.936,0.174c0.288,0.116 0.538,0.285 0.75,0.507c0.212,0.222 0.379,0.495 0.501,0.819c0.122,0.324 0.183,0.696 0.183,1.116c0,0.088 -0.012,0.148 -0.036,0.18c-0.024,0.032 -0.064,0.048 -0.12,0.048l-4.344,0Z" style="fill:#fff;fill-rule:nonzero;"/></g></svg>